<svg xmlns="http://www.w3.org/2000/svg" version="1.1" xmlns:xlink="http://www.w3.org/1999/xlink" xmlns:svgjs="http://svgjs.dev/svgjs" width="1920" height="160" preserveAspectRatio="none" viewBox="0 0 1920 160"><g mask="url(&quot;#SvgjsMask1175&quot;)" fill="none"><use xlink:href="#SvgjsSymbol1182" x="0" y="0"></use><use xlink:href="#SvgjsSymbol1182" x="720" y="0"></use><use xlink:href="#SvgjsSymbol1182" x="1440" y="0"></use></g><defs><mask id="SvgjsMask1175"><rect width="1920" height="160" fill="#ffffff"></rect></mask><path d="M-1 0 a1 1 0 1 0 2 0 a1 1 0 1 0 -2 0z" id="SvgjsPath1181"></path><path d="M-3 0 a3 3 0 1 0 6 0 a3 3 0 1 0 -6 0z" id="SvgjsPath1178"></path><path d="M-5 0 a5 5 0 1 0 10 0 a5 5 0 1 0 -10 0z" id="SvgjsPath1177"></path><path d="M2 -2 L-2 2z" id="SvgjsPath1180"></path><path d="M6 -6 L-6 6z" id="SvgjsPath1176"></path><path d="M30 -30 L-30 30z" id="SvgjsPath1179"></path></defs><symbol id="SvgjsSymbol1182"><use xlink:href="#SvgjsPath1176" x="30" y="30" stroke="rgba(255, 255, 255, 1)"></use><use xlink:href="#SvgjsPath1177" x="30" y="90" stroke="rgba(255, 255, 255, 1)"></use><use xlink:href="#SvgjsPath1178" x="30" y="150" stroke="rgba(255, 255, 255, 1)"></use><use xlink:href="#SvgjsPath1179" x="90" y="30" stroke="rgba(255, 255, 255, 1)" stroke-width="3"></use><use xlink:href="#SvgjsPath1177" x="90" y="90" stroke="rgba(255, 255, 255, 1)"></use><use xlink:href="#SvgjsPath1180" x="90" y="150" stroke="rgba(255, 255, 255, 1)"></use><use xlink:href="#SvgjsPath1176" x="150" y="30" stroke="rgba(255, 255, 255, 1)"></use><use xlink:href="#SvgjsPath1177" x="150" y="90" stroke="rgba(255, 255, 255, 1)"></use><use xlink:href="#SvgjsPath1177" x="150" y="150" stroke="rgba(255, 255, 255, 1)"></use><use xlink:href="#SvgjsPath1177" x="210" y="30" stroke="rgba(255, 255, 255, 1)"></use><use xlink:href="#SvgjsPath1181" x="210" y="90" stroke="rgba(255, 255, 255, 1)"></use><use xlink:href="#SvgjsPath1180" x="210" y="150" stroke="rgba(255, 255, 255, 1)"></use><use xlink:href="#SvgjsPath1181" x="270" y="30" stroke="rgba(255, 255, 255, 1)"></use><use xlink:href="#SvgjsPath1177" x="270" y="90" stroke="rgba(255, 255, 255, 1)"></use><use xlink:href="#SvgjsPath1181" x="270" y="150" stroke="rgba(255, 255, 255, 1)"></use><use xlink:href="#SvgjsPath1176" x="330" y="30" stroke="rgba(255, 255, 255, 1)"></use><use xlink:href="#SvgjsPath1179" x="330" y="90" stroke="rgba(255, 255, 255, 1)" stroke-width="3"></use><use xlink:href="#SvgjsPath1180" x="330" y="150" stroke="rgba(255, 255, 255, 1)"></use><use xlink:href="#SvgjsPath1176" x="390" y="30" stroke="rgba(255, 255, 255, 1)"></use><use xlink:href="#SvgjsPath1176" x="390" y="90" stroke="rgba(255, 255, 255, 1)"></use><use xlink:href="#SvgjsPath1177" x="390" y="150" stroke="rgba(255, 255, 255, 1)"></use><use xlink:href="#SvgjsPath1181" x="450" y="30" stroke="rgba(255, 255, 255, 1)"></use><use xlink:href="#SvgjsPath1176" x="450" y="90" stroke="rgba(255, 255, 255, 1)"></use><use xlink:href="#SvgjsPath1180" x="450" y="150" stroke="rgba(255, 255, 255, 1)"></use><use xlink:href="#SvgjsPath1177" x="510" y="30" stroke="rgba(255, 255, 255, 1)"></use><use xlink:href="#SvgjsPath1181" x="510" y="90" stroke="rgba(255, 255, 255, 1)"></use><use xlink:href="#SvgjsPath1179" x="510" y="150" stroke="rgba(255, 255, 255, 1)" stroke-width="3"></use><use xlink:href="#SvgjsPath1179" x="570" y="30" stroke="rgba(255, 255, 255, 1)" stroke-width="3"></use><use xlink:href="#SvgjsPath1180" x="570" y="90" stroke="rgba(255, 255, 255, 1)"></use><use xlink:href="#SvgjsPath1176" x="570" y="150" stroke="rgba(255, 255, 255, 1)"></use><use xlink:href="#SvgjsPath1176" x="630" y="30" stroke="rgba(255, 255, 255, 1)"></use><use xlink:href="#SvgjsPath1177" x="630" y="90" stroke="rgba(255, 255, 255, 1)"></use><use xlink:href="#SvgjsPath1181" x="630" y="150" stroke="rgba(255, 255, 255, 1)"></use><use xlink:href="#SvgjsPath1176" x="690" y="30" stroke="rgba(255, 255, 255, 1)"></use><use xlink:href="#SvgjsPath1180" x="690" y="90" stroke="rgba(255, 255, 255, 1)"></use><use xlink:href="#SvgjsPath1177" x="690" y="150" stroke="rgba(255, 255, 255, 1)"></use></symbol></svg>